<svg width="16" height="16" viewBox="0 0 16 16" fill="none" xmlns="http://www.w3.org/2000/svg">
<path d="M15.9855 8.18692C15.9855 7.64479 15.9407 7.09974 15.845 6.56641H8.16797V9.63747H12.5642C12.3818 10.6279 11.7956 11.5041 10.9373 12.0609V14.0536H13.5601C15.1003 12.6646 15.9855 10.6133 15.9855 8.18692Z" fill="white"/>
<path d="M8.1678 15.9791C10.3629 15.9791 12.2142 15.2729 13.5629 14.0538L10.9401 12.0612C10.2104 12.5476 9.26836 12.8231 8.17079 12.8231C6.04743 12.8231 4.24705 11.4194 3.60107 9.53223H0.894531V11.5864C2.27621 14.2795 5.09042 15.9791 8.1678 15.9791Z" fill="white"/>
<path d="M3.59864 9.5325C3.25771 8.54202 3.25771 7.46949 3.59864 6.47902V4.4248H0.895091C-0.259301 6.67828 -0.259301 9.33323 0.895091 11.5867L3.59864 9.5325Z" fill="white"/>
<path d="M8.1678 3.1849C9.32818 3.16732 10.4497 3.59516 11.29 4.38051L13.6138 2.10358C12.1424 0.749737 10.1895 0.00541452 8.1678 0.0288577C5.09042 0.0288577 2.27621 1.72849 0.894531 4.42446L3.59808 6.47867C4.24107 4.58856 6.04444 3.1849 8.1678 3.1849Z" fill="white"/>
</svg>
