<svg width="590" height="205" viewBox="0 0 590 205" fill="none" xmlns="http://www.w3.org/2000/svg">
<rect opacity="0.132278" x="1" y="1" width="588" height="203" rx="10" stroke="#313131"/>
<mask id="mask0_60_1071" style="mask-type:alpha" maskUnits="userSpaceOnUse" x="1" y="1" width="588" height="203">
<rect x="1" y="1" width="588" height="203" rx="10" fill="white"/>
</mask>
<g mask="url(#mask0_60_1071)">
<path opacity="0.594657" d="M842.79 297.636C831.55 317.935 665.226 391.075 660.805 392.81C630.23 404.906 569.59 377.297 542.094 409.112C486.506 473.435 309.77 534.698 300.974 511.98C296.016 499.122 219.052 454.234 230.142 385.423C236.809 344.053 332.93 306.359 363.228 265.734C413.016 198.976 293.704 159.739 406.084 110.687C406.68 110.426 407.31 110.202 407.917 109.961C507.501 74.8456 679.364 -4.74978 724.861 25.5187C760.391 49.1312 882.955 225.153 842.79 297.636Z" fill="url(#paint0_linear_60_1071)"/>
<g opacity="0.923131">
<path opacity="0.52181" fillRule="evenodd" clipRule="evenodd" d="M578.041 -10.4874C579.06 -10.816 579.723 -11.5891 579.719 -12.4451C579.722 -13.0034 579.437 -13.5395 578.929 -13.9346C578.421 -14.3297 577.731 -14.5514 577.011 -14.5507C575.908 -14.5549 574.91 -14.0422 574.485 -13.2523C574.059 -12.4624 574.29 -11.5514 575.07 -10.9456C575.849 -10.3398 577.022 -10.1589 578.041 -10.4874ZM557.795 -13.283C557.792 -12.428 557.124 -11.6588 556.105 -11.3346C555.085 -11.0104 553.914 -11.195 553.139 -11.8024C552.363 -12.4097 552.136 -13.3199 552.563 -14.1081C552.991 -14.8963 553.988 -15.407 555.09 -15.4018C555.812 -15.402 556.504 -15.1782 557.012 -14.7803C557.52 -14.3823 557.802 -13.8433 557.795 -13.283ZM535.335 -9.5803C536.837 -9.57032 538.066 -10.507 538.081 -11.673C538.092 -12.2351 537.813 -12.7772 537.305 -13.1779C536.797 -13.5786 536.103 -13.8045 535.379 -13.8049C533.876 -13.8132 532.649 -12.8752 532.636 -11.7092C532.624 -10.5432 533.832 -9.59027 535.335 -9.5803ZM518.841 -12.1433C518.815 -10.9803 517.584 -10.0515 516.086 -10.065C514.588 -10.0785 513.386 -11.0293 513.397 -12.1924C513.407 -13.3555 514.627 -14.2937 516.125 -14.2916C516.854 -14.2906 517.552 -14.0627 518.062 -13.6589C518.573 -13.2551 518.853 -12.7091 518.841 -12.1433ZM495.195 -11.0639C496.223 -11.3795 496.903 -12.1459 496.917 -13.0038C496.927 -14.1566 495.753 -15.1054 494.27 -15.1435C493.165 -15.1666 492.152 -14.6691 491.705 -13.8844C491.258 -13.0996 491.466 -12.1831 492.231 -11.5647C492.997 -10.9462 494.167 -10.7484 495.195 -11.0639ZM474.909 -11.4009C476.405 -11.3822 477.641 -12.305 477.676 -13.467C477.688 -14.0339 477.408 -14.5811 476.899 -14.987C476.39 -15.393 475.693 -15.6243 474.963 -15.6294C473.467 -15.6326 472.247 -14.6971 472.232 -13.5349C472.217 -12.3727 473.413 -11.4196 474.909 -11.4009ZM477.518 -0.650769C477.515 0.204261 476.847 0.973439 475.828 1.29767C474.808 1.62191 473.637 1.43725 472.862 0.82991C472.086 0.222572 471.859 -0.687672 472.286 -1.47587C472.714 -2.26407 473.711 -2.77478 474.813 -2.76957C475.535 -2.76975 476.227 -2.54596 476.735 -2.14801C477.243 -1.75007 477.525 -1.21099 477.518 -0.650769ZM495.068 1.78226C496.087 1.45803 496.755 0.68885 496.758 -0.16618C496.765 -0.7264 496.483 -1.26548 495.975 -1.66342C495.467 -2.06137 494.775 -2.28516 494.053 -2.28498C492.951 -2.29019 491.954 -1.77948 491.526 -0.991281C491.099 -0.203083 491.326 0.707161 492.102 1.3145C492.877 1.92184 494.048 2.10649 495.068 1.78226ZM518.682 0.685915C518.676 1.85192 517.454 2.79386 515.952 2.79087C514.45 2.78788 513.235 1.8411 513.238 0.675085C513.24 -0.490927 514.459 -1.43556 515.96 -1.43588C516.684 -1.43603 517.379 -1.21229 517.889 -0.814113C518.4 -0.415941 518.685 0.123856 518.682 0.685915ZM535.666 1.19395C537.168 1.19676 538.39 0.253855 538.397 -0.913168C538.385 -2.07881 537.176 -3.02235 535.676 -3.03648C534.174 -3.03598 532.955 -2.09039 532.952 -0.923356C532.95 0.243673 534.164 1.19114 535.666 1.19395ZM557.638 -0.427411C557.631 0.739068 556.409 1.68146 554.907 1.67855C553.405 1.67565 552.191 0.728546 552.193 -0.437942C552.196 -1.60443 553.414 -2.54951 554.916 -2.54992C556.42 -2.54292 557.635 -1.59552 557.638 -0.427411ZM576.831 2.52975C578.333 2.53265 579.555 1.59026 579.562 0.423785C579.559 -0.744326 578.344 -1.69173 576.84 -1.69872C575.338 -1.69831 574.12 -0.753234 574.117 0.413255C574.115 1.57974 575.329 2.52684 576.831 2.52975ZM477.359 12.2049C477.352 13.3713 476.13 14.3137 474.628 14.3108C473.126 14.3079 471.912 13.3608 471.914 12.1943C471.917 11.0278 473.135 10.0828 474.637 10.0823C476.141 10.0893 477.356 11.0367 477.359 12.2049ZM493.87 14.7954C495.372 14.7983 496.594 13.8559 496.601 12.6894C496.598 11.5213 495.383 10.5739 493.879 10.5669C492.377 10.5673 491.159 11.5124 491.156 12.6789C491.154 13.8454 492.368 14.7925 493.87 14.7954ZM518.522 13.5397C518.518 14.3951 517.851 15.1646 516.831 15.4891C515.811 15.8135 514.64 15.6288 513.865 15.0213C513.089 14.4137 512.862 13.5031 513.29 12.7146C513.717 11.926 514.715 11.4151 515.817 11.4202C517.317 11.4272 518.527 12.3751 518.522 13.5397ZM536.548 13.8922C537.568 13.5678 538.235 12.7982 538.239 11.9428C538.244 10.7782 537.034 9.83033 535.534 9.82332C534.432 9.81818 533.435 10.3291 533.007 11.1177C532.58 11.9062 532.807 12.8168 533.582 13.4244C534.357 14.0319 535.528 14.2166 536.548 13.8922ZM557.479 12.4285C557.475 13.2835 556.808 14.0527 555.788 14.3769C554.768 14.7011 553.597 14.5165 552.822 13.9091C552.047 13.3018 551.82 12.3916 552.247 11.6034C552.674 10.8152 553.672 10.3044 554.774 10.3097C555.496 10.3095 556.188 10.5333 556.696 10.9312C557.204 11.3292 557.486 11.8682 557.479 12.4285ZM577.711 15.2281C578.731 14.9039 579.398 14.1347 579.402 13.2797C579.409 12.7194 579.127 12.1804 578.619 11.7824C578.111 11.3845 577.419 11.1607 576.697 11.1609C575.595 11.1556 574.597 11.6664 574.17 12.4546C573.743 13.2427 573.97 14.153 574.745 14.7603C575.52 15.3677 576.691 15.5523 577.711 15.2281ZM477.2 25.0607C477.196 25.9158 476.529 26.6849 475.509 27.0092C474.489 27.3334 473.318 27.1487 472.543 26.5414C471.768 25.9341 471.541 25.0238 471.968 24.2356C472.395 23.4474 473.393 22.9367 474.495 22.9419C475.217 22.9417 475.909 23.1655 476.417 23.5635C476.925 23.9614 477.207 24.5005 477.2 25.0607ZM494.75 27.4937C495.77 27.1695 496.437 26.4003 496.441 25.5453C496.448 24.9851 496.166 24.446 495.658 24.0481C495.15 23.6501 494.458 23.4263 493.736 23.4265C492.634 23.4213 491.636 23.932 491.209 24.7202C490.782 25.5084 491.009 26.4186 491.784 27.026C492.56 27.6333 493.73 27.818 494.75 27.4937ZM518.364 26.3964C518.357 27.5629 517.135 28.5052 515.633 28.5023C514.131 28.4994 512.917 27.5523 512.92 26.3858C512.922 25.2194 514.14 24.2743 515.642 24.2739C517.146 24.2809 518.361 25.2283 518.364 26.3964ZM535.349 26.9055C536.851 26.9085 538.072 25.9665 538.079 24.8005C538.082 24.2384 537.797 23.6987 537.286 23.3005C536.775 22.9023 536.081 22.6786 535.357 22.6787C533.855 22.679 532.637 23.6237 532.635 24.7897C532.632 25.9557 533.847 26.9025 535.349 26.9055ZM560.002 25.6517C559.995 26.8177 558.774 27.7596 557.272 27.7567C555.77 27.7537 554.555 26.8069 554.558 25.6409C554.56 24.4749 555.778 23.5302 557.28 23.5299C558.004 23.5298 558.698 23.7535 559.209 24.1517C559.72 24.5498 560.005 25.0896 560.002 25.6517ZM576.512 28.2412C578.014 28.2442 579.235 27.3023 579.242 26.1363C579.245 25.5742 578.96 25.0344 578.449 24.6363C577.938 24.2381 577.244 24.0143 576.52 24.0145C575.018 24.0148 573.8 24.9594 573.798 26.1255C573.795 27.2915 575.01 28.2383 576.512 28.2412ZM477.042 37.9163C477.036 39.0828 475.814 40.0252 474.312 40.0223C472.81 40.0194 471.595 39.0723 471.598 37.9058C471.6 36.7393 472.819 35.7942 474.321 35.7938C475.825 35.8008 477.039 36.7482 477.042 37.9163ZM494.591 40.3492C495.611 40.0246 496.279 39.2546 496.283 38.3988C496.278 37.2367 495.074 36.2927 493.578 36.2785C492.476 36.2734 491.478 36.7847 491.051 37.5737C490.623 38.3626 490.85 39.2736 491.625 39.8814C492.401 40.4892 493.572 40.6738 494.591 40.3492ZM518.205 39.2512C518.202 40.1066 517.534 40.8761 516.514 41.2006C515.495 41.525 514.324 41.3403 513.548 40.7328C512.773 40.1252 512.546 39.2146 512.973 38.4261C513.401 37.6375 514.398 37.1266 515.5 37.1317C517 37.1387 518.21 38.0866 518.205 39.2512ZM536.23 39.6036C537.249 39.2792 537.917 38.5097 537.921 37.6543C537.925 36.4897 536.716 35.5418 535.215 35.5348C534.114 35.5296 533.116 36.0406 532.689 36.8291C532.261 37.6177 532.488 38.5283 533.264 39.1358C534.039 39.7434 535.21 39.9281 536.23 39.6036ZM559.843 38.5055C559.84 39.3609 559.172 40.1304 558.153 40.4549C557.133 40.7793 555.962 40.5946 555.187 39.9871C554.411 39.3795 554.184 38.4689 554.612 37.6804C555.039 36.8918 556.037 36.3809 557.138 36.386C558.639 36.393 559.848 37.3409 559.843 38.5055ZM577.393 40.9394C578.412 40.615 579.08 39.8455 579.083 38.9901C579.088 37.8255 577.879 36.8776 576.378 36.8706C575.277 36.8654 574.279 37.3764 573.852 38.165C573.424 38.9535 573.651 39.8641 574.427 40.4717C575.202 41.0792 576.373 41.2639 577.393 40.9394ZM476.884 50.7712C476.88 51.6266 476.212 52.3961 475.193 52.7205C474.173 53.0449 473.002 52.8603 472.227 52.2527C471.451 51.6452 471.224 50.7346 471.652 49.946C472.079 49.1575 473.077 48.6465 474.179 48.6517C475.679 48.6587 476.889 49.6065 476.884 50.7712ZM493.394 53.3626C494.896 53.3655 496.118 52.4231 496.125 51.2567C496.122 50.0886 494.907 49.1412 493.403 49.1342C491.901 49.1346 490.683 50.0796 490.68 51.2461C490.678 52.4126 491.892 53.3597 493.394 53.3626ZM518.52 50.0264C518.513 51.1928 517.291 52.1352 515.789 52.1323C514.287 52.1294 513.073 51.1823 513.075 50.0158C513.078 48.8493 514.296 47.9043 515.798 47.9039C517.302 47.9108 518.517 48.8582 518.52 50.0264ZM535.03 52.6169C536.532 52.6198 537.754 51.6774 537.761 50.5109C537.758 49.3428 536.543 48.3954 535.039 48.3884C533.537 48.3888 532.319 49.3339 532.316 50.5004C532.314 51.6669 533.528 52.614 535.03 52.6169ZM559.683 51.3632C559.677 52.5292 558.455 53.4711 556.953 53.4681C555.451 53.4652 554.237 52.5184 554.239 51.3524C554.242 50.1863 555.46 49.2417 556.962 49.2414C557.686 49.2412 558.38 49.465 558.891 49.8632C559.401 50.2613 559.687 50.8011 559.683 51.3632ZM576.195 53.9527C577.697 53.9557 578.919 53.0138 578.925 51.8478C578.929 51.2857 578.643 50.7459 578.133 50.3477C577.622 49.9496 576.928 49.7258 576.204 49.726C574.702 49.7263 573.483 50.6709 573.481 51.8369C573.479 53.003 574.693 53.9497 576.195 53.9527ZM476.723 63.6288C476.716 64.7949 475.494 65.7368 473.992 65.7338C472.49 65.7308 471.276 64.784 471.278 63.618C471.281 62.452 472.499 61.5074 474.001 61.507C474.725 61.5069 475.419 61.7306 475.93 62.1288C476.44 62.527 476.726 63.0668 476.723 63.6288ZM494.275 66.061C495.295 65.7367 495.962 64.9676 495.966 64.1125C495.973 63.5523 495.691 63.0132 495.183 62.6153C494.674 62.2173 493.982 61.9935 493.26 61.9937C492.159 61.9885 491.161 62.4992 490.734 63.2874C490.306 64.0756 490.533 64.9859 491.309 65.5932C492.084 66.2005 493.255 66.3852 494.275 66.061ZM518.361 62.8822C518.357 63.7372 517.69 64.5064 516.67 64.8307C515.65 65.1549 514.48 64.9702 513.704 64.3629C512.929 63.7556 512.702 62.8453 513.129 62.0571C513.556 61.2689 514.554 60.7582 515.656 60.7634C516.378 60.7632 517.07 60.987 517.578 61.385C518.086 61.7829 518.368 62.322 518.361 62.8822ZM535.911 65.3151C536.931 64.9907 537.598 64.2212 537.602 63.3658C537.607 62.2012 536.397 61.2533 534.897 61.2463C533.795 61.2411 532.798 61.7521 532.37 62.5407C531.943 63.3292 532.17 64.2398 532.945 64.8474C533.721 65.4549 534.891 65.6396 535.911 65.3151ZM559.526 64.217C559.522 65.0724 558.855 65.8419 557.835 66.1663C556.815 66.4908 555.644 66.3061 554.869 65.6986C554.094 65.091 553.867 64.1804 554.294 63.3919C554.722 62.6033 555.719 62.0923 556.821 62.0975C558.321 62.1045 559.531 63.0524 559.526 64.217ZM577.075 66.6509C578.095 66.3265 578.762 65.557 578.766 64.7016C578.771 63.537 577.561 62.5891 576.061 62.5821C574.959 62.5769 573.962 63.0879 573.534 63.8764C573.107 64.665 573.334 65.5756 574.109 66.1831C574.884 66.7907 576.055 66.9753 577.075 66.6509Z" fill="url(#paint1_linear_60_1071)"/>
</g>
</g>
<defs>
<linearGradient id="paint0_linear_60_1071" x1="111.661" y1="129.304" x2="235.441" y2="431.986" gradientUnits="userSpaceOnUse">
<stop stop-color="#812FBF"/>
<stop offset="1" stop-color="#610BA2"/>
</linearGradient>
<linearGradient id="paint1_linear_60_1071" x1="1180.66" y1="3394.92" x2="2547.63" y2="-313.047" gradientUnits="userSpaceOnUse">
<stop stop-color="#A9C6FF"/>
<stop offset="1" stop-color="#DCE9FF"/>
</linearGradient>
</defs>
</svg>
